<?xml version="1.0" encoding="iso-8859-1"?>
<!-- Uploaded to: SVG Repo, www.svgrepo.com, Generator: SVG Repo Mixer Tools -->
<svg height="800px" width="800px" version="1.1" id="Layer_1" xmlns="http://www.w3.org/2000/svg" xmlns:xlink="http://www.w3.org/1999/xlink" 
	 viewBox="0 0 512 512" xml:space="preserve">
<path style="fill:#477777;" d="M486.181,247.294c12.754,10.224,20.071,25.47,20.071,41.81V388.4c0,16.523-7.447,31.86-20.423,42.084
	C476.243,438.035,464.65,442,452.782,442c-4.212,0-8.451-0.496-12.65-1.5l-116.263-27.987
	c-16.823-4.043-28.586-18.975-28.586-36.281v-77.009c0-17.619,12.011-32.59,29.199-36.424l116.524-25.991
	C456.955,233.248,473.427,237.069,486.181,247.294z"/>
<path style="fill:#437171;" d="M486.181,247.294c12.754,10.224,20.071,25.47,20.071,41.81v49.648H295.283v-39.528
	c0-17.619,12.011-32.59,29.199-36.424l116.524-25.991C456.955,233.248,473.427,237.069,486.181,247.294z"/>
<path style="fill:#477777;" d="M245.995,492.438c0,10.811-8.751,19.562-19.562,19.562h-95.84c-10.798,0-19.562-8.751-19.562-19.562
	c0-10.798,8.764-19.562,19.562-19.562h95.84C237.244,472.876,245.995,481.64,245.995,492.438z"/>
<path style="fill:#437171;" d="M245.995,492.438c0,10.811-8.751,19.562-19.562,19.562h-46.114v-39.124h46.114
	C237.244,472.876,245.995,481.64,245.995,492.438z"/>
<path style="fill:#F5888E;" d="M334.401,228.431v218.767c0,19.418-15.793,35.211-35.211,35.211H61.435
	c-19.405,0-35.211-15.793-35.211-35.211V228.431c0-19.418,15.806-35.211,35.211-35.211H299.19
	C318.608,193.219,334.401,209.012,334.401,228.431z"/>
<path style="fill:#F76976;" d="M334.401,228.431v218.767c0,19.418-15.793,35.211-35.211,35.211H180.319v-289.19H299.19
	C318.608,193.219,334.401,209.012,334.401,228.431z"/>
<path style="fill:#477777;" d="M232.223,113.237c0,62.442-50.796,113.25-113.237,113.25S5.749,175.679,5.749,113.237
	C5.749,50.796,56.544,0,118.986,0S232.223,50.796,232.223,113.237z"/>
<path style="fill:#437171;" d="M232.223,113.237c0,62.442-50.796,113.25-113.237,113.25V0C181.427,0,232.223,50.796,232.223,113.237
	z"/>
<path style="fill:#477777;" d="M318.152,148.097c0,46.453-37.794,84.247-84.247,84.247c-0.561,0-1.122,0-1.682-0.026
	c-45.684-0.887-82.564-38.328-82.564-84.22s36.881-83.334,82.564-84.22c0.561-0.026,1.122-0.026,1.682-0.026
	C280.358,63.85,318.152,101.644,318.152,148.097z"/>
<path style="fill:#437171;" d="M318.152,148.097c0,46.453-37.794,84.247-84.247,84.247c-0.561,0-1.122,0-1.682-0.026V63.876
	c0.561-0.026,1.122-0.026,1.682-0.026C280.358,63.85,318.152,101.644,318.152,148.097z"/>
</svg>